<?xml version="1.0" encoding="utf-8"?>
<!-- Generator: Adobe Illustrator 21.1.0, SVG Export Plug-In . SVG Version: 6.00 Build 0)  -->
<svg version="1.1" id="Слой_1" xmlns="http://www.w3.org/2000/svg" xmlns:xlink="http://www.w3.org/1999/xlink" x="0px" y="0px"
	 viewBox="0 0 23 24" style="enable-background:new 0 0 23 24;" xml:space="preserve">
<style type="text/css">
	.st0{fill:#111111;}
</style>
<title>Group</title>
<desc>Created with Sketch.</desc>
<g id="Page-1_1_">
	<g id="страница-художника-320-copy-5" transform="translate(-230.000000, -446.000000)">
		<g id="Page-1" transform="translate(20.000000, 20.000000)">
			<g id="Group-38" transform="translate(115.000000, 425.911000)">
				<g id="Group" transform="translate(95.000000, 1.000000)">
					<path id="Stroke-26" class="st0" d="M11.5,1.1c5.5,0,10,4.5,10,10s-4.5,10-10,10s-10-4.5-10-10S6,1.1,11.5,1.1 M11.5,0.1
						c-6.1,0-11,4.9-11,11s4.9,11,11,11c6.1,0,11-4.9,11-11S17.6,0.1,11.5,0.1L11.5,0.1z"/>
					<path id="Fill-28" class="st0" d="M9.8,18.1h2.7v-6.8h1.9L14.6,9h-2.1V7.7c0-0.5,0.1-0.8,0.6-0.8h1.5V4.5h-1.9
						c-2,0-2.9,0.9-2.9,2.6V9H8.4v2.3h1.4V18.1z"/>
				</g>
			</g>
		</g>
	</g>
</g>
</svg>
