<?xml version="1.0" encoding="utf-8"?>
<!-- Generator: Adobe Illustrator 21.1.0, SVG Export Plug-In . SVG Version: 6.00 Build 0)  -->
<svg version="1.1" id="Слой_1" xmlns="http://www.w3.org/2000/svg" xmlns:xlink="http://www.w3.org/1999/xlink" x="0px" y="0px"
	 viewBox="0 0 24 24" style="enable-background:new 0 0 24 24;" xml:space="preserve">
<style type="text/css">
	.st0{fill:#111111;}
</style>
<title>in-b</title>
<desc>Created with Sketch.</desc>
<g id="Page-1_1_">
	<g id="страница-художника-320-copy-5" transform="translate(-135.000000, -446.000000)">
		<g id="Page-1" transform="translate(20.000000, 20.000000)">
			<g id="Group-38" transform="translate(115.000000, 425.911000)">
				<g id="in-b">
					<path id="Stroke-22" class="st0" d="M11.7,2c5.5,0,10,4.5,10,10s-4.5,10-10,10c-5.5,0-10-4.5-10-10S6.2,2,11.7,2 M11.7,1
						C5.6,1,0.7,6,0.7,12c0,6.1,4.9,11,11,11c6.1,0,11-4.9,11-11C22.7,6,17.8,1,11.7,1L11.7,1z"/>
					<path id="Fill-24" class="st0" d="M15.1,9.6c-0.4,0-0.8-0.3-0.8-0.8c0-0.4,0.3-0.8,0.8-0.8c0.4,0,0.8,0.4,0.8,0.8
						C15.9,9.3,15.5,9.6,15.1,9.6 M11.7,15.1c-1.6,0-2.9-1.3-2.9-2.9c0-1.6,1.3-2.9,2.9-2.9c1.6,0,2.9,1.3,2.9,2.9
						C14.6,13.8,13.3,15.1,11.7,15.1 M17.4,9.4c0-0.7-0.1-1.1-0.2-1.3c-0.1-0.3-0.3-0.6-0.5-0.8c-0.2-0.2-0.5-0.4-0.8-0.5
						c-0.2-0.1-0.6-0.2-1.3-0.2c-0.7,0-1,0-2.8,0c-1.9,0-2.1,0-2.8,0c-0.7,0-1.1,0.1-1.3,0.2C7.2,6.9,7,7.1,6.7,7.3
						C6.5,7.5,6.3,7.8,6.2,8.1C6.1,8.4,6,8.7,6,9.4c0,0.7,0,1,0,2.8c0,1.9,0,2.1,0,2.8c0,0.7,0.2,1.1,0.2,1.3
						c0.1,0.3,0.3,0.6,0.5,0.8c0.2,0.2,0.5,0.4,0.8,0.5C7.8,17.8,8.2,18,8.8,18c0.8,0,1,0,2.8,0c1.9,0,2.1,0,2.8,0
						c0.7,0,1.1-0.2,1.3-0.2c0.3-0.1,0.6-0.3,0.8-0.5c0.2-0.2,0.4-0.5,0.5-0.8c0.1-0.2,0.2-0.6,0.2-1.3c0-0.7,0-1,0-2.8
						C17.5,10.4,17.5,10.2,17.4,9.4"/>
				</g>
			</g>
		</g>
	</g>
</g>
</svg>
