<?xml version="1.0" encoding="utf-8"?>
<!-- Generator: Adobe Illustrator 21.1.0, SVG Export Plug-In . SVG Version: 6.00 Build 0)  -->
<svg version="1.1" id="Слой_1" xmlns="http://www.w3.org/2000/svg" xmlns:xlink="http://www.w3.org/1999/xlink" x="0px" y="0px"
	 viewBox="0 0 24 24" style="enable-background:new 0 0 24 24;" xml:space="preserve">
<style type="text/css">
	.st0{fill:#111111;}
</style>
<title>in-w</title>
<desc>Created with Sketch.</desc>
<g>
	<path class="st0" d="M11.7,0.9c-6.1,0-11,4.9-11,11c0,6.1,4.9,11,11,11c6.1,0,11-4.9,11-11C22.7,5.9,17.8,0.9,11.7,0.9z M17.4,15
		c0,0.7-0.1,1.1-0.2,1.3c-0.1,0.3-0.3,0.6-0.5,0.8c-0.2,0.2-0.5,0.4-0.8,0.5c-0.2,0.1-0.6,0.2-1.3,0.2c-0.7,0-1,0-2.8,0
		c-1.9,0-2.1,0-2.8,0c-0.7,0-1.1-0.2-1.3-0.2c-0.3-0.1-0.6-0.3-0.8-0.5c-0.2-0.2-0.4-0.5-0.5-0.8C6.1,16.1,6,15.7,6,15
		c0-0.7,0-1,0-2.8c0-1.9,0-2.1,0-2.8C6,8.6,6.1,8.3,6.2,8c0.1-0.3,0.3-0.6,0.5-0.8C7,7,7.2,6.8,7.5,6.7c0.2-0.1,0.6-0.2,1.3-0.2
		c0.8,0,1,0,2.8,0c1.9,0,2.1,0,2.8,0c0.7,0,1.1,0.1,1.3,0.2c0.3,0.1,0.6,0.3,0.8,0.5c0.2,0.2,0.4,0.5,0.5,0.8
		c0.1,0.2,0.2,0.6,0.2,1.3c0,0.7,0,1,0,2.8C17.5,14,17.5,14.3,17.4,15z"/>
	<path class="st0" d="M15.1,8c-0.4,0-0.8,0.4-0.8,0.8c0,0.4,0.3,0.8,0.8,0.8c0.4,0,0.8-0.3,0.8-0.8C15.9,8.3,15.5,8,15.1,8z"/>
	<path class="st0" d="M11.7,9.3c-1.6,0-2.9,1.3-2.9,2.9c0,1.6,1.3,2.9,2.9,2.9c1.6,0,2.9-1.3,2.9-2.9C14.6,10.6,13.3,9.3,11.7,9.3z"
		/>
</g>
</svg>
