<?xml version="1.0" encoding="UTF-8"?>
<svg width="113px" height="111px" viewBox="0 0 113 111" version="1.1" xmlns="http://www.w3.org/2000/svg" xmlns:xlink="http://www.w3.org/1999/xlink">
    <!-- Generator: Sketch 43.1 (39012) - http://www.bohemiancoding.com/sketch -->
    <title>logo</title>
    <desc>Created with Sketch.</desc>
    <defs></defs>
    <g id="Page-1" stroke="none" stroke-width="1" fill="none" fill-rule="evenodd">
        <g id="MAIN-320" transform="translate(-20.000000, -22.000000)" fill="#111111">
            <g id="1--экран" transform="translate(19.000000, 22.000000)">
                <g id="logo" transform="translate(0.640884, 0.000000)">
                    <path d="M8.34929181,-6.84124252e-05 L0.790504368,17.7194338 L4.59863873,17.7194338 L6.33197284,13.6400009 L13.7887994,13.6400009 L15.5310295,17.7194338 L19.3733789,17.7194338 L11.822803,-6.84124252e-05 L8.34929181,-6.84124252e-05 Z M10.060044,4.53088651 L12.6282252,10.6462732 L7.46517508,10.6462732 L10.060044,4.53088651 Z" id="Fill-1"></path>
                    <path d="M93.8255876,62.9299218 L97.6275632,62.9299218 L99.3684246,58.8463842 L106.821145,58.8463842 L108.559954,62.9299218 L112.415989,62.9299218 L104.85378,45.1994736 L101.381638,45.1994736 L93.8255876,62.9299218 Z M100.494784,55.8567612 L103.09239,49.7345333 L105.661255,55.8567612 L100.494784,55.8567612 Z" id="Fill-2"></path>
                    <polygon id="Fill-3" points="61.7108002 -6.84124252e-05 61.7108002 11.2763516 52.8210475 -6.84124252e-05 49.7218489 -6.84124252e-05 49.7218489 17.6277612 53.2726861 17.6277612 53.2726861 6.29455883 62.2390804 17.6277612 65.2397398 17.6277612 65.2397398 -6.84124252e-05"></polygon>
                    <polygon id="Fill-4" points="107.346825 -6.84124252e-05 107.346825 11.2763516 98.4611785 -6.84124252e-05 95.3612956 -6.84124252e-05 95.3612956 17.6277612 98.9107642 17.6277612 98.9107642 6.29455883 107.881264 17.6277612 110.873712 17.6277612 110.873712 -6.84124252e-05"></polygon>
                    <path d="M93.9906409,110.174859 L97.8165671,110.174859 L99.5635872,106.075586 L107.065578,106.075586 L108.816704,110.174859 L112.692584,110.174859 L105.090001,92.343844 L101.590486,92.343844 L93.9906409,110.174859 Z M100.707054,103.062703 L103.315609,96.9001116 L105.900213,103.062703 L100.707054,103.062703 Z" id="Fill-5"></path>
                    <polygon id="Fill-6" points="1.93882966 63.2956547 5.51224882 63.2956547 5.51224882 51.9008811 14.5327029 63.2956547 17.5470483 63.2956547 17.5470483 45.5652064 13.9996325 45.5652064 13.9996325 56.9148278 5.05445154 45.5652064 1.93882966 45.5652064"></polygon>
                    <path d="M9.74376013,107.066266 C12.8573291,107.066266 15.2188514,104.605471 15.2188514,101.260104 C15.2188514,97.9167886 12.8573291,95.4600984 9.74376013,95.4600984 C6.62608535,95.4600984 4.27003745,97.9167886 4.27003745,101.260104 C4.27003745,104.605471 6.62608535,107.066266 9.74376013,107.066266 Z M9.74376013,110.481415 C4.41989934,110.481415 0.544019194,106.354093 0.544019194,101.260104 C0.544019194,96.146275 4.41989934,92.0374248 9.74376013,92.0374248 C15.0635151,92.0374248 18.9393953,96.146275 18.9393953,101.260104 C18.9393953,106.354093 15.0635151,110.481415 9.74376013,110.481415 Z" id="Fill-7"></path>
                    <polygon id="Fill-9" points="55.7021595 110.174859 59.1482987 110.174859 66.5948608 92.343844 62.647129 92.343844 57.4512325 105.113023 52.2820237 92.343844 48.2535445 92.343844"></polygon>
                </g>
            </g>
        </g>
    </g>
</svg>