<?xml version="1.0" encoding="UTF-8"?>
<svg width="7px" height="10px" viewBox="0 0 7 10" version="1.1" xmlns="http://www.w3.org/2000/svg" xmlns:xlink="http://www.w3.org/1999/xlink">
    <!-- Generator: Sketch 43.1 (39012) - http://www.bohemiancoding.com/sketch -->
    <title>Group 21</title>
    <desc>Created with Sketch.</desc>
    <defs></defs>
    <g id="Page-1" stroke="none" stroke-width="1" fill="none" fill-rule="evenodd">
        <g id="страница-художника-320-copy-5" transform="translate(-184.000000, -532.000000)" fill="#1D1C1B">
            <g id="Page-1" transform="translate(20.000000, 20.000000)">
                <g id="Group-21" transform="translate(164.000000, 511.911000)">
                    <path d="M3.4557,5.5691 C3.3677,5.5781 3.2817,5.5861 3.1867,5.5861 C3.0917,5.5861 3.0057,5.5781 2.9177,5.5691 C1.7617,5.4351 0.8667,4.4561 0.8667,3.2661 C0.8667,1.9841 1.9047,0.9461 3.1867,0.9461 C4.4677,0.9461 5.5067,1.9841 5.5067,3.2661 C5.5067,4.4561 4.6097,5.4351 3.4557,5.5691 M3.1867,0.3651 C1.5847,0.3651 0.2857,1.6641 0.2857,3.2661 C0.2857,5.2981 3.1867,9.6481 3.1867,9.6481 C3.1867,9.6481 6.0877,5.2981 6.0877,3.2661 C6.0877,1.6641 4.7887,0.3651 3.1867,0.3651" id="Fill-17"></path>
                    <path d="M4.3463,3.2663 C4.3463,3.9063 3.8263,4.4253 3.1873,4.4253 C2.5463,4.4253 2.0273,3.9063 2.0273,3.2663 C2.0273,2.6253 2.5463,2.1063 3.1873,2.1063 C3.8263,2.1063 4.3463,2.6253 4.3463,3.2663" id="Fill-19"></path>
                </g>
            </g>
        </g>
    </g>
</svg>