<?xml version="1.0" encoding="utf-8"?>
<!-- Generator: Adobe Illustrator 21.1.0, SVG Export Plug-In . SVG Version: 6.00 Build 0)  -->
<svg version="1.1" id="Слой_1" xmlns="http://www.w3.org/2000/svg" xmlns:xlink="http://www.w3.org/1999/xlink" x="0px" y="0px"
	 viewBox="0 0 20 20" style="enable-background:new 0 0 20 20;" xml:space="preserve">
<style type="text/css">
	.st0{fill:#111111;}
</style>
<title>Group 6</title>
<desc>Created with Sketch.</desc>
<g>
	<path class="st0" d="M0,0v20h20V0H0z M8.2,13l-1.7-2.3H5.9V13H4.3V6.9h2.9c0.7,0,1.2,0.2,1.6,0.5c0.4,0.3,0.6,0.8,0.6,1.4
		c0,0.8-0.4,1.4-1.2,1.7L10,13H8.2z M15.9,10.4c0,0.8-0.3,1.5-0.8,2c-0.5,0.5-1.1,0.7-1.9,0.7c-0.8,0-1.4-0.2-1.9-0.7
		c-0.5-0.5-0.8-1.1-0.8-2V6.9h1.6v3.6c0,0.8,0.5,1.2,1.1,1.2c0.7,0,1.1-0.4,1.1-1.2V6.9h1.6V10.4z"/>
	<path class="st0" d="M7.1,8.2H5.9v1.2h1.2c0.4,0,0.7-0.2,0.7-0.6C7.8,8.5,7.5,8.2,7.1,8.2z"/>
</g>
</svg>
