<?xml version="1.0" encoding="utf-8"?>
<!-- Generator: Adobe Illustrator 21.1.0, SVG Export Plug-In . SVG Version: 6.00 Build 0)  -->
<svg version="1.1" id="Слой_1" xmlns="http://www.w3.org/2000/svg" xmlns:xlink="http://www.w3.org/1999/xlink" x="0px" y="0px"
	 viewBox="0 0 20 20" style="enable-background:new 0 0 20 20;" xml:space="preserve">
<style type="text/css">
	.st0{fill:#111111;}
</style>
<title>Group 6</title>
<desc>Created with Sketch.</desc>
<g id="Page-1_1_">
	<g id="страница-художника-320-copy-5" transform="translate(-280.000000, -388.000000)">
		<g id="Page-1" transform="translate(20.000000, 20.000000)">
			<g id="Group-6" transform="translate(260.000000, 368.000000)">
				<path id="RU" class="st0" d="M5.9,13H4.3V6.9h2.9c0.7,0,1.2,0.2,1.6,0.5c0.4,0.3,0.6,0.8,0.6,1.4c0,0.8-0.4,1.4-1.2,1.7L10,13
					H8.2l-1.7-2.3H5.9V13z M5.9,8.2v1.2h1.2c0.4,0,0.7-0.2,0.7-0.6S7.5,8.2,7.1,8.2H5.9z M10.6,10.4c0,0.8,0.3,1.5,0.8,2
					c0.5,0.5,1.1,0.7,1.9,0.7c0.8,0,1.4-0.2,1.9-0.7c0.5-0.5,0.8-1.1,0.8-2V6.9h-1.6v3.6c0,0.8-0.5,1.2-1.1,1.2
					c-0.6,0-1.1-0.4-1.1-1.2V6.9h-1.6V10.4z"/>
			</g>
		</g>
	</g>
</g>
<path d="M19,1v18H1V1H19 M20,0H0v20h20V0L20,0z"/>
</svg>
