<?xml version="1.0" encoding="utf-8"?>
<!-- Generator: Adobe Illustrator 21.1.0, SVG Export Plug-In . SVG Version: 6.00 Build 0)  -->
<svg version="1.1" id="Слой_1" xmlns="http://www.w3.org/2000/svg" xmlns:xlink="http://www.w3.org/1999/xlink" x="0px" y="0px"
	 viewBox="0 0 23 24" style="enable-background:new 0 0 23 24;" xml:space="preserve">
<style type="text/css">
	.st0{fill:#FFFFFF;}
</style>
<title>Group 2</title>
<desc>Created with Sketch.</desc>
<g id="Page-1_1_">
	<g id="страница-художника-320-copy-5" transform="translate(-277.000000, -446.000000)">
		<g id="Page-1" transform="translate(20.000000, 20.000000)">
			<g id="Group-38" transform="translate(115.000000, 425.911000)">
				<g id="Group-2" transform="translate(142.000000, 1.000000)">
					<path id="Stroke-34" class="st0" d="M11.5,1.4c5.5,0,9.9,4.4,10,9.9c0,2.7-1,5.2-2.9,7.1c-1.9,1.9-4.4,3-7,3l-0.1,0
						c-5.5,0-9.9-4.4-10-9.9c0-2.7,1-5.2,2.9-7.1C6.2,2.5,8.7,1.4,11.5,1.4L11.5,1.4 M11.5,0.4c0,0-0.1,0-0.1,0
						c-6.1,0.1-11,5-10.9,11.1c0.1,6,5,10.9,11,10.9c0,0,0.1,0,0.1,0c6.1-0.1,11-5,10.9-11.1C22.4,5.3,17.5,0.4,11.5,0.4L11.5,0.4z"
						/>
					<path id="Fill-36" class="st0" d="M14.5,8.1l-5.1,4.5c-0.1,0-0.1,0.1-0.1,0.2l-0.2,1.7c0,0.1-0.1,0.1-0.1,0l-0.8-2.6
						c0-0.1,0-0.2,0.1-0.3l6-3.7C14.5,7.8,14.7,8,14.5,8.1 M15.9,6.1L5,10.3c-0.4,0.1-0.3,0.6,0,0.8l2.8,0.8l1,3.3
						c0.1,0.3,0.5,0.4,0.8,0.2l1.4-1.5l2.8,2.1c0.3,0.3,0.8,0.1,0.9-0.4l1.9-8.9C16.7,6.3,16.3,5.9,15.9,6.1"/>
				</g>
			</g>
		</g>
	</g>
</g>
</svg>
