<?xml version="1.0" encoding="utf-8"?>
<!-- Generator: Adobe Illustrator 21.1.0, SVG Export Plug-In . SVG Version: 6.00 Build 0)  -->
<svg version="1.1" id="Слой_1" xmlns="http://www.w3.org/2000/svg" xmlns:xlink="http://www.w3.org/1999/xlink" x="0px" y="0px"
	 viewBox="0 0 24 23" style="enable-background:new 0 0 24 23;" xml:space="preserve">
<style type="text/css">
	.st0{fill:#FFFFFF;}
</style>
<title>Group 3</title>
<desc>Created with Sketch.</desc>
<path class="st0" d="M11.9,0.6c-6.1,0-11,4.9-11,11s4.9,11,11,11c6.1,0,11-4.9,11-11S18,0.6,11.9,0.6z M18.9,16.2H17
	c-0.6,0-0.7-0.4-1.8-1.5c-0.9-0.9-1.3-1-1.6-1c-0.2,0-0.3,0.2-0.3,0.5v1.4c0,0.4-0.2,0.6-1.2,0.6c-1.6,0-3.4-1-4.8-2.9
	c-2-2.8-2.6-4.8-2.6-5.3c0-0.2,0.2-0.4,0.4-0.4h1.7c0.4,0,0.6,0.1,0.8,0.6c0.8,2.2,2.1,4.2,2.7,4.2c0.2,0,0.2-0.2,0.2-0.6V9.5
	c0-1.1-0.6-1.2-0.6-1.6c0-0.2,0.1-0.3,0.3-0.3h2.7c0.4,0,0.4,0.1,0.4,0.6v3.1c0,0.4,0.1,0.5,0.2,0.5c0.2,0,0.4-0.1,0.7-0.5
	c1.1-1.2,2-3.1,2-3.1c0.1-0.2,0.3-0.4,0.6-0.4h1.7c0.3,0,0.5,0.2,0.4,0.5c-0.2,0.9-2.1,3.6-2.1,3.6c-0.2,0.3-0.3,0.4,0,0.7
	c0.2,0.2,0.7,0.7,1.1,1.2c0.8,0.9,1.4,1.6,1.4,2.1C19.2,16.1,19.1,16.2,18.9,16.2z"/>
</svg>
