<?xml version="1.0" encoding="utf-8"?>
<!-- Generator: Adobe Illustrator 21.1.0, SVG Export Plug-In . SVG Version: 6.00 Build 0)  -->
<svg version="1.1" id="Слой_1" xmlns="http://www.w3.org/2000/svg" xmlns:xlink="http://www.w3.org/1999/xlink" x="0px" y="0px"
	 viewBox="0 0 24 23" style="enable-background:new 0 0 24 23;" xml:space="preserve">
<style type="text/css">
	.st0{fill:#FFFFFF;}
</style>
<title>Group 3</title>
<desc>Created with Sketch.</desc>
<g id="Page-1_1_">
	<g id="страница-художника-320-copy-5" transform="translate(-182.000000, -447.000000)">
		<g id="Page-1" transform="translate(20.000000, 20.000000)">
			<g id="Group-38" transform="translate(115.000000, 425.911000)">
				<g id="Group-3" transform="translate(48.000000, 2.000000)">
					<path id="Stroke-30" class="st0" d="M10.9,0.7c5.5,0,10,4.5,10,10s-4.5,10-10,10s-10-4.5-10-10S5.4,0.7,10.9,0.7 M10.9-0.3
						c-6.1,0-11,4.9-11,11s4.9,11,11,11c6.1,0,11-4.9,11-11S17-0.3,10.9-0.3L10.9-0.3z"/>
					<path id="Fill-32" class="st0" d="M15.8,10.9c0,0,1.9-2.7,2.1-3.6C18,7,17.8,6.8,17.5,6.8h-1.7c-0.4,0-0.5,0.2-0.6,0.4
						c0,0-0.9,1.9-2,3.1c-0.4,0.4-0.5,0.5-0.7,0.5c-0.2,0-0.2-0.1-0.2-0.5V7.3c0-0.4-0.1-0.6-0.4-0.6H9.1C8.9,6.7,8.8,6.8,8.8,7
						c0,0.4,0.6,0.5,0.6,1.6v2.3c0,0.5,0,0.6-0.2,0.6c-0.6,0-1.9-2-2.7-4.2C6.3,6.8,6.2,6.7,5.7,6.7H4.1c-0.2,0-0.4,0.2-0.4,0.4
						c0,0.4,0.5,2.5,2.6,5.3c1.4,1.9,3.2,2.9,4.8,2.9c1,0,1.2-0.2,1.2-0.6v-1.4c0-0.4,0.1-0.5,0.3-0.5c0.2,0,0.6,0.1,1.6,1
						c1.1,1.1,1.2,1.5,1.8,1.5h1.9c0.2,0,0.4-0.1,0.4-0.4c0-0.4-0.5-1.2-1.4-2.1c-0.3-0.5-0.9-1-1.1-1.2
						C15.5,11.3,15.6,11.2,15.8,10.9"/>
				</g>
			</g>
		</g>
	</g>
</g>
</svg>
