<?xml version="1.0" encoding="utf-8"?>
<!-- Generator: Adobe Illustrator 21.1.0, SVG Export Plug-In . SVG Version: 6.00 Build 0)  -->
<svg version="1.1" id="Слой_1" xmlns="http://www.w3.org/2000/svg" xmlns:xlink="http://www.w3.org/1999/xlink" x="0px" y="0px"
	 viewBox="0 0 102 102" style="enable-background:new 0 0 102 102;" xml:space="preserve">
<style type="text/css">
	.st0{fill:#1D1D1B;}
</style>
<g>
	<path class="st0" d="M62.3,12.7l8.9-8.7l1.6,0.6l-8.9,8.7L62.3,12.7z"/>
	<path class="st0" d="M70.2,14l7.7-5.1l1.4,0.9l-1.7,9.1l-1.5-1l0.4-2.1l-3-2L71.7,15L70.2,14z M74.7,12.9l2.1,1.4l0.6-3.1
		L74.7,12.9z"/>
	<path class="st0" d="M77.7,19.1l6-6l1.1,1.1L84,21l3.8-3.8l1.2,1.2l-6,6l-1-1l0.8-6.9l-3.9,3.8L77.7,19.1z"/>
	<path class="st0" d="M83.7,25.2l7.1-4.7l0.8,1.2l-2.2,6.6l4.5-3l0.9,1.4l-7.1,4.7L87,30.2l2.2-6.6l-4.6,3L83.7,25.2z"/>
	<path class="st0" d="M87.9,31.6l9.3,0.2l0.6,1.6l-6.6,6.5l-0.7-1.7l1.5-1.5l-1.3-3.3l-2.1-0.1L87.9,31.6z M92.3,33.3l0.9,2.3
		l2.3-2.2L92.3,33.3z"/>
	<path class="st0" d="M91.6,41.8l8.4-1.1l0.2,1.5l-4.8,4.9l5.4-0.7l0.2,1.7l-8.4,1.1l-0.2-1.4l4.8-5l-5.4,0.7L91.6,41.8z"/>
	<path class="st0" d="M99.9,51.7c0.8,0.9,1.1,2,1,3.2c-0.1,1.3-0.6,2.3-1.5,3c-0.9,0.8-2,1.1-3.2,1c-1.2-0.1-2.2-0.6-3-1.5
		c-0.8-0.9-1.1-2-1-3.2c0.1-1.3,0.6-2.3,1.5-3c0.9-0.8,2-1.1,3.2-1C98.1,50.3,99.2,50.8,99.9,51.7z M93.8,54.4
		c-0.1,0.7,0.2,1.4,0.6,1.9c0.5,0.5,1.1,0.8,1.9,0.9c0.8,0.1,1.5-0.1,2-0.6c0.6-0.5,0.9-1.1,0.9-1.8c0.1-0.8-0.2-1.4-0.6-1.9
		S97.6,52,96.8,52c-0.8-0.1-1.5,0.1-2,0.6C94.2,53,93.9,53.6,93.8,54.4z"/>
	<path class="st0" d="M91.1,61.5l9.2-1.1l-0.5,1.9L93.2,63l5.2,4.1l-0.5,1.8l-7.2-5.8L91.1,61.5z"/>
	<path class="st0" d="M90.2,65.3l6.1,7l-0.7,1.5l-9.3-0.5l0.8-1.7l2.1,0.1l1.6-3.2l-1.4-1.6L90.2,65.3z M91.8,69.7l-1.1,2.2l3.2,0.2
		L91.8,69.7z"/>
	<path class="st0" d="M85.2,76.4c1.2-0.1,2.3,0.2,3.3,1.1c1,0.8,1.5,1.9,1.6,3s-0.3,2.3-1.2,3.3c-0.6,0.8-1.4,1.3-2.1,1.5l-1.3-1.1
		c0.9-0.3,1.6-0.7,2.1-1.4c0.6-0.7,0.8-1.4,0.8-2.1c0-0.7-0.4-1.4-1-1.9c-0.6-0.5-1.3-0.8-2-0.7c-0.7,0.1-1.3,0.4-1.8,1
		c-0.5,0.6-0.7,1.1-0.7,1.7l2.2,1.9L83.8,84L81,81.6c-0.1-0.5,0-1.1,0.2-1.7c0.2-0.6,0.5-1.2,1-1.8C83,77.1,84,76.5,85.2,76.4z"/>
	<path class="st0" d="M80.2,80.7l2.4,9l-1.3,1l-8.2-4.4l1.5-1.2l1.9,1l2.8-2.2l-0.6-2.1L80.2,80.7z M79.8,85.4l-2,1.5l2.8,1.5
		L79.8,85.4z"/>
	<path class="st0" d="M73,86.3l4,7.5l-1.5,0.8l-3.3-6.1l-3.8,2l-0.7-1.4L73,86.3z"/>
	<path class="st0" d="M67.3,89.2l2.8,8l-1.6,0.6l-2.3-6.5l-4.1,1.4l-0.5-1.5L67.3,89.2z"/>
	<path class="st0" d="M61.3,91.2l1.5,8.4l-6.1,1.1l-0.3-1.5l4.4-0.8l-0.3-1.6l-3.6,0.6l-0.3-1.5l3.6-0.6l-0.4-2.1l-4.5,0.8L55,92.4
		L61.3,91.2z"/>
	<path class="st0" d="M54.4,92.5l-0.1,8.5l-3.9-0.1c-0.9,0-1.6-0.3-2.1-0.7c-0.5-0.5-0.8-1.1-0.8-1.8c0-1.1,0.7-2,1.8-2.3l-2.6-3.7
		l2,0l2.4,3.5l1.5,0l0.1-3.4L54.4,92.5z M52.6,97.3l-2.1,0c-0.8,0-1.3,0.3-1.3,1c0,0.6,0.5,1,1.2,1.1l2.1,0L52.6,97.3z"/>
	<path class="st0" d="M44.6,91.9l-0.7,3.7l2.4,5.2l-2-0.4l-1.5-3.3l-2.6,2.6l-2-0.4l4-4l0.7-3.8L44.6,91.9z"/>
	<path class="st0" d="M39.5,89.2l-8.9,8.6L29,97.1l8.9-8.6L39.5,89.2z"/>
	<path class="st0" d="M29.6,87.8c0.3,1.2,0.1,2.3-0.6,3.4c-0.7,1.1-1.7,1.7-2.8,1.9c-1.2,0.2-2.3,0-3.4-0.8c-0.7-0.5-1.2-1-1.6-1.7
		l1-1.5c0.3,0.7,0.8,1.3,1.5,1.8c0.7,0.4,1.4,0.6,2.1,0.4c0.7-0.1,1.3-0.5,1.8-1.2c0.4-0.7,0.6-1.4,0.4-2.1
		c-0.2-0.7-0.6-1.3-1.3-1.8c-0.8-0.5-1.6-0.7-2.4-0.7l1-1.5c0.8,0,1.6,0.3,2.4,0.8C28.7,85.6,29.3,86.6,29.6,87.8z"/>
	<path class="st0" d="M19.2,88.1c-1.2,0-2.3-0.4-3.2-1.3c-0.9-0.9-1.4-1.9-1.4-3.1c0-1.2,0.4-2.2,1.3-3.1c0.9-0.9,1.9-1.3,3.1-1.4
		c1.2,0,2.2,0.4,3.1,1.3c0.9,0.9,1.4,1.9,1.4,3.1c0,1.2-0.4,2.2-1.3,3.1C21.4,87.6,20.4,88.1,19.2,88.1z M21.1,81.7
		c-0.5-0.5-1.2-0.8-1.9-0.7c-0.7,0-1.4,0.3-1.9,0.9c-0.6,0.6-0.8,1.2-0.8,1.9s0.2,1.3,0.8,1.9c0.5,0.5,1.2,0.8,1.9,0.7
		c0.7,0,1.4-0.3,1.9-0.9c0.6-0.6,0.9-1.2,0.9-1.9S21.6,82.2,21.1,81.7z"/>
	<path class="st0" d="M18.6,77l-7.1,4.7l-0.8-1.2l2.1-6.6l-4.5,3l-0.9-1.4l7.1-4.7l0.8,1.2l-2.2,6.6l4.5-3L18.6,77z"/>
	<path class="st0" d="M6.5,73.8l-2.8-6.5l1.4-0.6l1.1,2.5l6.4-2.7l0.7,1.6l-6.4,2.7l1.1,2.5L6.5,73.8z"/>
	<path class="st0" d="M11.5,63.6l-8.3,2l-1.5-6.1l1.5-0.4l1.1,4.4l1.6-0.4l-0.9-3.5l1.5-0.4l0.9,3.5l2.1-0.5l-1.1-4.5l1.5-0.4
		L11.5,63.6z"/>
	<path class="st0" d="M9.8,56.9l-8.5,0.3l-0.1-1.7l3.4-2.6l-3.6-2.3L1,48.9l8.5-0.3l0.1,1.7l-5.8,0.2l2.8,1.8l0,1l-2.6,2.1l5.8-0.2
		L9.8,56.9z"/>
	<path class="st0" d="M9.7,47.4l-8.4-1.3l0.6-3.7c0.1-0.9,0.5-1.6,1-2c0.6-0.5,1.2-0.6,1.9-0.5c0.8,0.1,1.3,0.5,1.7,1.1
		c0.4,0.6,0.5,1.3,0.4,2.2l-0.3,1.9l3.3,0.5L9.7,47.4z M5.1,45l0.3-1.8c0.1-0.8-0.2-1.4-0.8-1.5c-0.7-0.1-1.1,0.3-1.3,1.2l-0.3,1.8
		L5.1,45z"/>
	<path class="st0" d="M10.8,39.1c-1.2,0.8-2.6,0.9-4.1,0.3c-0.7-0.3-1.4-0.6-1.9-1.1c-1.1-1-1.6-2.4-1.1-3.8
		c0.4-1.1,1.1-1.7,2.1-2.1c1-0.3,2.1-0.3,3.3,0.1c1.1,0.4,2,1.1,2.6,2c0.6,0.9,0.7,1.9,0.3,2.9C11.8,38.1,11.4,38.7,10.8,39.1z
		 M10.5,36.9c0.2-0.5,0.1-1.1-0.3-1.6c-0.4-0.5-1-0.9-1.7-1.1c-0.7-0.3-1.4-0.3-2-0.2c-0.6,0.1-1,0.5-1.2,1
		c-0.2,0.5-0.1,1.1,0.3,1.6c0.4,0.5,1,0.9,1.7,1.1c0.7,0.3,1.4,0.3,2,0.2C9.9,37.8,10.3,37.4,10.5,36.9z"/>
	<path class="st0" d="M13.4,33.2L6.1,29l2-3.4c0.5-0.8,1-1.3,1.7-1.5c0.7-0.2,1.3-0.1,2,0.2c1,0.6,1.4,1.6,1.2,2.7l4.4-0.4l-1,1.8
		l-4.2,0.4L11.4,30l3,1.7L13.4,33.2z M10.1,29.3l1-1.8c0.4-0.7,0.3-1.3-0.3-1.6c-0.6-0.3-1.1-0.1-1.5,0.6l-1,1.8L10.1,29.3z"/>
	<path class="st0" d="M17.1,26.8l-4-8.4l1.1-1.2l8.8,3l-1.2,1.4l-2-0.7l-2.4,2.7l0.9,1.9L17.1,26.8z M16.7,22.1l1.7-1.9l-3-1
		L16.7,22.1z"/>
	<path class="st0" d="M23.3,20l-5.1-6.8l3.1-2.4c0.7-0.5,1.4-0.8,2.1-0.7c0.7,0.1,1.3,0.4,1.7,1c0.7,0.9,0.7,2,0,2.9l4.3,1.3
		l-1.6,1.2l-4-1.2l-1.2,0.9l2.1,2.7L23.3,20z M21.8,15.1l1.7-1.3c0.6-0.5,0.8-1,0.4-1.6c-0.4-0.5-1-0.5-1.6-0.1l-1.7,1.3L21.8,15.1z
		"/>
	<path class="st0" d="M31.5,14.5l-1.7-3.4l-5.1-2.7l1.8-0.9l3.2,1.7l0.5-3.7l1.8-0.9l-0.8,5.6l1.7,3.4L31.5,14.5z"/>
	<path class="st0" d="M37,11.8l1.5-9.2l1.6-0.4l5.5,7.4l-1.8,0.4l-1.3-1.7l-3.5,0.8l-0.4,2.1L37,11.8z M39.3,7.7l2.4-0.6l-1.9-2.6
		L39.3,7.7z"/>
	<path class="st0" d="M45.9,9.7l-0.3-8.5l3.9-0.2c0.9,0,1.6,0.2,2.2,0.6c0.5,0.4,0.8,1,0.9,1.8c0,1.1-0.6,2-1.7,2.4l2.8,3.5l-2,0.1
		L49,6.2l-1.5,0.1l0.1,3.4L45.9,9.7z M47.4,4.8l2.1-0.1c0.8,0,1.2-0.4,1.2-1.1c0-0.6-0.5-1-1.3-1l-2.1,0.1L47.4,4.8z"/>
	<path class="st0" d="M54.2,1.1L61.2,2L61,3.5l-2.7-0.4L57.4,10l-1.7-0.2L56.6,3L54,2.6L54.2,1.1z"/>
</g>
</svg>
